P2
# Created by IrfanView
4 6
255
50 50 255 255
50 50 0 255
0 50 0 255
20 50 0 255
20 20 0 255
0 50 255 255